<?xml version="1.0" encoding="utf-8"?>
<!-- Generator: Adobe Illustrator 24.0.2, SVG Export Plug-In . SVG Version: 6.00 Build 0)  -->
<svg version="1.1" id="Camada_1" xmlns="http://www.w3.org/2000/svg" xmlns:xlink="http://www.w3.org/1999/xlink" x="0px" y="0px"
	 viewBox="0 0 274.73 151.96" style="enable-background:new 0 0 274.73 151.96;" xml:space="preserve">
<style type="text/css">
	.st0{fill:#00BED6;}
	.st1{fill:#453EA1;}
	.st2{fill:#001689;}
	.st3{opacity:0.29;}
	.st4{fill:url(#SVGID_1_);}
	.st5{fill:url(#SVGID_2_);}
	.st6{fill:url(#SVGID_3_);}
	.st7{fill:url(#SVGID_4_);}
	.st8{fill:#FFFFFF;}
</style>
<g>
	<g>
		<g>
			<g>
				<path class="st0" d="M157.94,48.57c0.03-0.16,0.06-0.32,0.09-0.48c0.11-0.58,0.17-1.08,0.18-1.51
					c1.62-15.94-10.39-30.48-27.88-33.08c-18.36-2.73-35.8,8.72-38.95,25.57c-2.54,13.57,5.65,25.4,17.53,32.46
					c9.77,5.8,12.07,12.09,8.6,16.59c16.48-5.81,33.39-16.98,39.17-34.77c0.5-1.41,0.9-2.87,1.18-4.38
					C157.89,48.84,157.91,48.7,157.94,48.57z"/>
			</g>
			
				<ellipse transform="matrix(0.1415 -0.9899 0.9899 0.1415 76.8113 172.0862)" class="st1" cx="137.62" cy="41.76" rx="33.84" ry="33.84"/>
			<path class="st2" d="M130.33,13.49c-3.91-0.58-7.77-0.52-11.47,0.1c-7.73,5.15-13.32,13.45-14.74,23.37
				c-2.64,18.5,10.21,35.64,28.71,38.29c2.71,0.39,5.39,0.44,8,0.19c7.14-5.78,12.92-13.09,15.85-22.1c0.5-1.41,0.9-2.87,1.18-4.38
				c0.03-0.14,0.05-0.27,0.07-0.41c0.03-0.16,0.06-0.32,0.09-0.48c0.11-0.58,0.17-1.08,0.18-1.51
				C159.83,30.63,147.82,16.1,130.33,13.49z"/>
			<g class="st3">
				<g>
					
						<linearGradient id="SVGID_1_" gradientUnits="userSpaceOnUse" x1="162.3315" y1="72.2679" x2="138.5274" y2="61.9889" gradientTransform="matrix(0.9986 -0.053 0.053 0.9986 -35.0312 8.22)">
						<stop  offset="0" style="stop-color:#FFFFFF;stop-opacity:0"/>
						<stop  offset="1" style="stop-color:#FFFFFF;stop-opacity:0.98"/>
					</linearGradient>
					<polygon class="st4" points="140.83,75.45 140.82,75.46 140.83,75.45 					"/>
					
						<linearGradient id="SVGID_2_" gradientUnits="userSpaceOnUse" x1="172.0421" y1="76.4667" x2="172.0416" y2="76.4665" gradientTransform="matrix(0.9986 -0.053 0.053 0.9986 -35.0312 8.22)">
						<stop  offset="0" style="stop-color:#FFFFFF;stop-opacity:0"/>
						<stop  offset="1" style="stop-color:#FFFFFF;stop-opacity:0.98"/>
					</linearGradient>
					<polygon class="st5" points="140.82,75.46 140.82,75.46 140.82,75.46 					"/>
					
						<linearGradient id="SVGID_3_" gradientUnits="userSpaceOnUse" x1="160.3512" y1="76.8539" x2="136.5471" y2="66.5748" gradientTransform="matrix(0.9986 -0.053 0.053 0.9986 -35.0312 8.22)">
						<stop  offset="0" style="stop-color:#FFFFFF;stop-opacity:0"/>
						<stop  offset="1" style="stop-color:#FFFFFF;stop-opacity:0.98"/>
					</linearGradient>
					<path class="st6" d="M139.4,75.56c-0.39,0.02-0.78,0.03-1.17,0.04c-0.11,0-0.22,0.01-0.33,0.01c-0.47,0-0.94-0.01-1.41-0.02
						c-0.12,0-0.24-0.01-0.37-0.01c-0.48-0.02-0.96-0.05-1.45-0.1c-0.09-0.01-0.19-0.02-0.28-0.03c-0.52-0.05-1.04-0.11-1.56-0.18
						c-4.27-0.61-8.24-2-11.79-4c-0.57-0.32-1.13-0.66-1.68-1.01c-3.1-1.99-5.83-4.45-8.1-7.29c-0.37-0.46-0.73-0.93-1.08-1.41
						c-2.16-3-3.83-6.35-4.92-9.93c-3,3.47-5.45,7.09-7.27,10.73c2.97,3.57,6.72,6.68,10.93,9.18c9.77,5.8,12.07,12.09,8.6,16.59
						c8.13-2.87,16.37-7.04,23.32-12.67c-0.34,0.03-0.68,0.06-1.02,0.08C139.66,75.55,139.53,75.55,139.4,75.56z"/>
				</g>
			</g>
			
				<linearGradient id="SVGID_4_" gradientUnits="userSpaceOnUse" x1="188.9508" y1="61.9129" x2="172.4465" y2="-31.6878" gradientTransform="matrix(0.9986 -0.053 0.053 0.9986 -35.0312 8.22)">
				<stop  offset="0" style="stop-color:#FFFFFF;stop-opacity:0"/>
				<stop  offset="1" style="stop-color:#FFFFFF;stop-opacity:0.98"/>
			</linearGradient>
			<path class="st7" d="M171.13,46.55c0.8-5.62,0.17-11.1-1.61-16.1c-4.58-2.03-10.09-2.96-16.1-2.77c3.67,5.49,5.49,12.06,4.8,18.9
				c-0.01,0.43-0.07,0.93-0.18,1.51c-0.03,0.16-0.06,0.32-0.09,0.48c-0.02,0.14-0.05,0.27-0.07,0.41c-0.28,1.5-0.68,2.96-1.18,4.38
				c-2.93,9.01-8.71,16.32-15.85,22.09C156.05,74,168.87,62.33,171.13,46.55z"/>
			<path class="st8" d="M153.33,42.38c-1.84-1.58-3.44-2.49-5.3-3.06c-1.37-0.43-3-0.54-5.37-0.09c0,0-2.1,0.32-4.9,2.12
				c3.23-2.06,3.88-2.72,5.51-5.04c1.58-2.69,1.92-5.33,1.1-7.96c-0.61-1.86-0.84-3.69-0.73-5.47c-1.2,1.26-2.86,2.09-5.02,2.52
				c-3.03,0.77-4.46,1.83-5.8,4.9c-0.76,1.43-1.57,3.92-2.01,6.65c-0.44-2.72-1.26-5.24-1.98-6.65c-1.37-3.07-2.8-4.12-5.83-4.9
				c-2.13-0.43-3.82-1.26-5.02-2.52c0.12,1.78-0.11,3.61-0.73,5.47c-0.82,2.64-0.44,5.27,1.11,7.96c1.63,2.32,2.3,2.98,5.54,5.04
				c-2.8-1.81-4.9-2.12-4.9-2.12c-2.36-0.46-4.58,0.06-5.86,0.66c-1.31,0.6-2.28,1.35-3.39,2.41c-1.13,1.09-1.31,1.63-2.45,3.04
				h0.06c2.74,2.84,6.63,3.95,9.1,4.1c1.63,0.06,3.12-0.03,8.19-2.58c-2.94,1.52-3.47,2.09-4.78,3.81
				c-1.08,1.4-6.56,10.6-1.84,13.24c4.78,2.66,10.47-6.25,11.17-8.34c0.87-2.01,1.43-3.78,1.61-5.47c0.2,1.69,0.73,3.47,1.6,5.47
				c0.7,2.09,6.42,11,11.17,8.34c4.72-2.64-0.73-11.83-1.83-13.24c-1.29-1.72-1.84-2.29-4.75-3.81c3.56,1.81,5.19,2.32,8.05,2.64
				c2.24,0.26,6.5-0.72,10.43-4.87C154.82,43.81,154,42.98,153.33,42.38z"/>
			<path class="st2" d="M137.54,44.21c-1.7,0.49-2.67,0.42-3.64,0.4c0,0-0.52,0.02-1.96-0.17c0.13,0.44,0.28,0.89,0.41,1.4
				c0.76,2.73,2.93,6.52,7.82,9.25c-3.75-1.25-7.09-4.89-7.78-6.01c-0.78-1.23-1.36-2.65-1.75-3.83c-0.54,0.53-1.16,1.12-1.92,1.82
				c-2.22,2.05-4.01,3.28-4.37,8.19c-0.52-3.28,0.6-5.21,1.34-6.33c1.34-1.97,3.32-3.9,4.29-4.76c-1.08-0.17-2.46-0.42-4.14-0.74
				c-3.64-0.72-6.18-1.5-11.05,0.68l-0.07,0.04c0,0-0.01,0-0.01,0c2.74-2.07,5.41-2.2,7.04-2.18c3.15,0.04,6.86,0.76,8.23,1.04
				c-0.04-0.15-0.06-0.23-0.06-0.23c-0.11-0.89-1.06-2.88-3.06-4.59c-4.55-3.89-3.54-7.64-3.54-7.64s-0.13,3.32,4.83,7.11
				c1.34,1.02,1.7,1.71,2.11,2.37c0,0,0.45,0.68,1.16,2.8c0.73-0.87,1.59-2.25,2.09-3.88c1.64-5.36,5.64-6.8,5.64-6.8
				s-3.21,1.8-4.55,7.37c-0.37,1.5-0.86,2.14-1.29,2.8c0,0-0.19,0.34-0.88,1.1c1.34,0.08,3.08,0.04,4.81-0.36
				c5.54-1.27,9.72,0.36,10.67,0.78c0.13,0.06,0.22,0.11,0.22,0.11S143.83,42.41,137.54,44.21z"/>
		</g>
		<g>
			<path class="st2" d="M92.2,106.57"/>
			<path class="st2" d="M66.66,129.49l-0.02-0.05c-0.4-0.83-0.86-1.86-1.36-3.07c-0.65-1.58-1.5-3.58-2.52-5.96
				c-0.52-1.17-1.15-2.68-1.89-4.49c-0.75-1.85-1.54-3.77-2.36-5.77c-0.82-2-1.62-3.96-2.41-5.89c-0.77-1.9-1.47-3.57-2.05-4.96
				c-0.14-0.33-0.33-0.6-0.58-0.82c-0.3-0.27-0.71-0.4-1.21-0.4c-0.11,0-0.25,0.01-0.42,0.03l-1.06,0.19
				c-0.02,0.01-0.54,0.13-0.93,0.58c-0.2,0.29-0.38,0.64-0.48,0.85l-1.99,4.31l0,0l-0.09,0.21c-0.57,1.25-1.19,2.62-1.91,4.19
				c-0.84,1.83-1.73,3.79-2.67,5.87c-0.94,2.08-1.86,4.1-2.76,6.07l-2.51,5.46c-0.64,1.4-1.19,2.57-1.65,3.54
				c-0.02,0.03-0.39,0.85-0.13,1.47c0.12,0.27,0.33,0.46,0.65,0.56c0.43,0.13,0.85,0.23,1.32,0.31c0.03,0,2.89,0.47,3.94-1.85
				c0.36-0.77,0.77-1.7,1.26-2.82c0.67-1.54,1.45-3.3,2.33-5.29H57.1c0.37,0.87,0.68,1.63,0.95,2.29c0.31,0.79,0.6,1.52,0.88,2.17
				c0.27,0.65,0.53,1.27,0.76,1.86l0.72,1.78c0.76,1.7,2.49,1.94,3.43,1.94c0.18,0,0.33-0.01,0.44-0.02l0.14-0.02
				c0.37-0.05,0.73-0.11,1.09-0.19c0.21-0.04,0.39-0.1,0.57-0.15l0.16-0.06C66.48,131.24,67.19,130.69,66.66,129.49z M46.97,117.26
				c0.4-0.93,0.77-1.82,1.12-2.67c0.47-1.14,0.92-2.22,1.35-3.22l1.98-4.59c0.31,0.77,0.69,1.73,1.14,2.88
				c0.74,1.89,1.73,4.44,2.93,7.6H46.97z"/>
			<path class="st2" d="M33.15,98.09c-0.22,0-0.52,0.02-0.89,0.06l-0.88,0.09c-2.19,0.61-2.45,2.79-2.46,3.6l0,0l0,0.09
				c0,0.01,0,0.01,0,0.02l0,0.2c0.02,1,0.03,2.17,0.03,3.59v9.74c0,2.65-0.27,4.83-0.79,6.46c-0.51,1.61-1.18,2.86-1.98,3.72
				c-0.78,0.85-1.67,1.42-2.62,1.71c-0.92,0.28-1.87,0.43-2.81,0.45c-0.95-0.02-1.9-0.17-2.82-0.45c-0.96-0.29-1.84-0.86-2.63-1.71
				c-0.8-0.86-1.47-2.12-1.98-3.72c-0.52-1.63-0.79-3.81-0.79-6.46v-13.94c0-1.71-0.08-2.23-0.15-2.49
				c-0.08-0.28-0.37-0.95-1.38-0.95c-0.22,0-0.52,0.02-0.89,0.06l-0.88,0.09c-2.2,0.61-2.45,2.79-2.47,3.6l0,0l0,0.09
				c0,0.01,0,0.01,0,0.02l0,0.2c0.02,1,0.03,2.17,0.03,3.59v9.79c0,3.02,0.31,5.62,0.92,7.74c0.62,2.15,1.53,3.92,2.7,5.27
				c1.18,1.36,2.65,2.36,4.36,2.96c1.67,0.59,3.57,0.88,5.65,0.88c0.06,0,0.12,0,0.18,0l0.13,0l0.14,0c0.06,0,0.12,0,0.18,0
				c2.08,0,3.98-0.3,5.65-0.88c1.71-0.6,3.17-1.59,4.36-2.96c1.17-1.35,2.08-3.13,2.7-5.27c0.61-2.12,0.92-4.73,0.92-7.74v-13.99
				c0-1.71-0.08-2.23-0.15-2.49C34.45,98.75,34.16,98.09,33.15,98.09z"/>
			<path class="st2" d="M95.5,99.04L95.5,99.04c-0.08-0.29-0.37-0.95-1.38-0.95c-0.22,0-0.52,0.02-0.89,0.06l-0.88,0.09
				c-2.22,0.62-2.45,2.83-2.47,3.62l0,0l0.01,0.28c0.02,1,0.03,2.17,0.03,3.59v9.74c0,2.65-0.27,4.83-0.79,6.46
				c-0.51,1.61-1.18,2.86-1.98,3.72c-0.78,0.85-1.67,1.42-2.62,1.71c-0.92,0.28-1.87,0.43-2.81,0.45c-0.95-0.02-1.9-0.17-2.82-0.45
				c-0.96-0.29-1.84-0.86-2.63-1.71c-0.8-0.86-1.47-2.12-1.98-3.72c-0.52-1.64-0.79-3.81-0.79-6.46v-13.94
				c0-1.71-0.08-2.23-0.15-2.49c-0.08-0.28-0.37-0.95-1.38-0.95c-0.22,0-0.52,0.02-0.89,0.06l-0.88,0.09
				c-2.19,0.61-2.45,2.79-2.46,3.6l0,0l0,0.08c0,0.01,0,0.02,0,0.02l0,0.2c0.02,1,0.03,2.17,0.03,3.59v9.79
				c0,3.02,0.31,5.62,0.92,7.74c0.62,2.15,1.53,3.92,2.7,5.27c1.18,1.36,2.65,2.36,4.36,2.96c1.67,0.59,3.57,0.88,5.65,0.88
				c0.06,0,0.12,0,0.18,0l0.13,0l0.14,0c0.06,0,0.12,0,0.18,0c2.08,0,3.98-0.3,5.65-0.88c1.71-0.6,3.17-1.59,4.36-2.96
				c1.17-1.35,2.08-3.13,2.7-5.27c0.61-2.12,0.92-4.72,0.92-7.74v-13.99C95.65,99.81,95.57,99.29,95.5,99.04z"/>
			<path class="st2" d="M171.11,104.48c-0.3-0.31-0.7-0.49-1.13-0.49c-1.69,0-3.07,1.32-3.13,3.02l-0.02,0.54
				c-1.12-1.83-3.41-4.18-7.75-4.18c-5.85,0-11.77,5.11-11.77,14.87c0,7.99,4.66,13.79,11.09,13.79c3.31,0,6.19-1.48,7.87-4.01v2.12
				c0,6.14-2.72,9.38-7.87,9.38c-2.35,0-4.68-0.6-6.54-1.69c-0.26-0.15-0.58-0.18-0.86-0.07c-0.29,0.11-0.5,0.35-0.59,0.64
				c-0.3,1.01-0.19,2.08,0.31,3.01c0.5,0.93,1.34,1.6,2.35,1.9c1.6,0.47,3.43,0.73,5.16,0.73c2.24,0,6.45-0.44,9.48-3.39
				c2.56-2.6,3.7-6.56,3.7-12.85v-16c0-2.72,0.04-4.62,0.12-6.16C171.56,105.21,171.41,104.8,171.11,104.48z M166.21,119.81
				c0,0.9-0.12,1.75-0.35,2.39c-0.87,2.79-3.27,4.6-6.11,4.6c-4.97,0-7.19-4.47-7.19-8.9c0-5.64,2.91-9.42,7.25-9.42
				c2.95,0,5.25,1.78,6.16,4.76c0.17,0.52,0.25,1.13,0.25,1.97V119.81z"/>
			<path class="st2" d="M111.59,123.48V96.45c0-1.39-0.05-2.26-0.16-2.65c-0.08-0.28-0.32-0.76-1.09-0.76
				c-0.25,0-0.58,0.02-1.01,0.06l-1.28,0.12c-1.98,0.16-2.24,1.79-2.25,2.5l0.01,0.36c0.04,1.31,0.06,3.03,0.06,5.27v28.77
				c0,0.58,0.11,0.95,0.34,1.15c0.21,0.19,0.52,0.28,0.91,0.28c0.24,0,0.57-0.01,0.97-0.03c0.4-0.02,0.82-0.05,1.27-0.09
				c0.45-0.04,0.86-0.09,1.29-0.16c0.05-0.02,1.12-0.39,1.06-1.82c-0.02-0.37-0.03-0.77-0.05-1.22
				C111.61,127.14,111.59,125.59,111.59,123.48z"/>
			<path class="st2" d="M182.36,123.48V93.4c0-1.39-0.05-2.26-0.16-2.65c-0.08-0.28-0.32-0.76-1.09-0.76
				c-0.25,0-0.59,0.02-1.01,0.06c-0.42,0.04-0.85,0.08-1.28,0.12c-1.98,0.16-2.24,1.79-2.25,2.52l0.01,0.34
				c0.04,1.29,0.06,6.03,0.06,8.32v28.77c0,0.58,0.11,0.95,0.34,1.15c0.22,0.19,0.52,0.28,0.91,0.28c0.24,0,0.57-0.01,0.97-0.03
				c0.4-0.02,0.82-0.05,1.27-0.09c0.44-0.04,0.86-0.09,1.29-0.16c0.05-0.02,1.12-0.39,1.06-1.82c-0.02-0.37-0.03-0.77-0.05-1.22
				C182.38,127.15,182.36,125.55,182.36,123.48z"/>
			<path class="st2" d="M209.8,109.75l-0.01-0.02c-1.06-2.83-3.32-4.31-5.05-5.05l-0.07-0.04c-0.1-0.05-0.2-0.08-0.3-0.12
				l-0.19-0.07c-1.17-0.47-2.53-0.7-4.03-0.7c-1.99,0-3.8,0.4-5.37,1.2c-1.57,0.79-2.91,1.88-3.98,3.22
				c-1.08,1.34-1.91,2.9-2.47,4.64c-0.56,1.73-0.85,3.59-0.85,5.53c0,2.02,0.32,3.96,0.94,5.75c0.63,1.81,1.57,3.33,2.8,4.51
				c1.42,1.34,3.01,2.24,4.71,2.67c1.67,0.42,3.27,0.64,4.77,0.64c1.17,0,2.25-0.1,3.21-0.31c0.11-0.03,2.71-0.68,3.88-2.41l0.01,0
				l0.11-0.19c0.07-0.12,0.13-0.25,0.18-0.37l0.07-0.16c0.2-0.6,0.17-1.07-0.09-1.38c-0.34-0.42-0.91-0.37-1.03-0.35
				c-0.38,0.12-0.84,0.24-1.39,0.37c-1.05,0.25-2.27,0.38-3.64,0.38c-2.62,0-4.78-0.82-6.43-2.43c-1.59-1.55-2.42-3.74-2.48-6.52
				c1.56,0.13,8.11,0.62,12.37-0.25c0.96-0.19,1.8-0.56,2.58-1.13c0.41-0.33,1.16-1.07,1.68-2.29
				C210.55,112.63,209.99,110.39,209.8,109.75z M204.7,113.62c0,0.62-0.28,0.8-0.5,0.88l-0.02,0.01c-1.18,0.52-7.92,0.25-10.81,0.09
				c0.13-1,0.37-1.92,0.72-2.75c0.38-0.9,0.86-1.68,1.42-2.31c0.55-0.62,1.17-1.1,1.85-1.42c0.68-0.32,1.38-0.48,2.15-0.48
				c1.72,0,3,0.54,3.93,1.66C204.35,110.4,204.78,111.85,204.7,113.62z"/>
			<path class="st2" d="M233.27,127.2l-0.01-0.02l-0.17,0.01c-0.37,0.02-0.78,0.04-1.28,0.06c-1.21,0.04-2.57,0.07-4.06,0.09
				c-1.48,0.02-2.98,0.01-4.47-0.03c-1.24-0.03-2.3-0.08-3.16-0.14c1.22-1.9,2.45-3.8,3.67-5.71c1.32-2.05,2.51-3.95,3.59-5.68
				c1.08-1.74,2.01-3.25,2.78-4.55c0.48-0.8,0.85-1.45,1.14-1.99l0.03-0.05c1.72-2.97,0.77-3.95,0.63-4.07
				c-0.2-0.22-0.5-0.39-0.92-0.52l-0.15-0.03c-0.4-0.07-0.88-0.07-1.22-0.07l-0.34,0.01c-3.81,0.1-8.69,0.03-10.61,0l-0.8-0.02
				c-0.65-0.02-1.34-0.04-2.05-0.08l-0.31-0.02v0.01c-0.1,0-0.2,0-0.31,0.01c-0.07,0-0.15,0-0.22,0.01
				c-0.74,0.11-1.17,0.52-1.38,0.78c-0.29,0.45-0.52,0.94-0.72,1.48c-0.12,0.32-0.13,0.61-0.02,0.86c0.12,0.27,0.38,0.48,0.76,0.63
				c0.21,0.08,0.49,0.15,0.85,0.2l0.19,0.03c0.11,0.02,2.72,0.47,10.96,0.13c-0.9,1.62-1.98,3.42-3.21,5.35
				c-1.34,2.11-2.7,4.21-4.03,6.25c-1.32,2.01-2.56,3.86-3.67,5.5l-1.21,1.76c-0.48,0.76-0.96,1.86-0.48,2.74
				c0.31,0.49,0.89,0.81,1.74,0.93l0.08,0.01c0.26,0.03,0.52,0.05,0.82,0.07c0.92,0.06,1.9,0.11,2.94,0.15
				c1.06,0.04,2.11,0.06,3.12,0.06h2.99c1.28,0,2.37-0.01,3.27-0.03c0.93-0.02,1.67-0.06,2.27-0.12c0.62-0.06,1.1-0.13,1.47-0.21
				c0.39-0.09,0.73-0.22,1.01-0.41c0.39-0.3,0.75-0.76,1.07-1.36c0.36-0.73,0.42-1.26,0.17-1.64
				C233.81,127.32,233.5,127.22,233.27,127.2z"/>
			<path class="st2" d="M267.94,123.28c-0.14-0.62-0.4-0.89-0.65-0.98c-0.54-0.17-0.96,0.43-1.15,0.77c-0.2,0.38-0.4,0.81-0.54,1.03
				c-0.86,1.47-2.17,2.98-4.27,2.63c-2.32-0.38-2.44-2.57-2.61-5.22c-0.6-9.26,0.5-14.89,0.43-16.5c-0.03-0.68-0.55-1.23-1.23-1.23
				l-0.92-0.04c-0.75,0-1.45,0.36-1.89,0.96l-1.67,2.28c-1.15-1.91-2.86-3-5.09-3.31c-0.49-0.07-0.97-0.14-1.52-0.14
				c-3.03,0-5.58,1.32-7.64,3.82c-1.15,1.35-1.96,2.9-2.48,4.62h-0.01c0,0-2.67,6.93,1.26,13.92c0.75,1.25,2.2,3.15,4.61,4.32
				c2.08,0.99,4.89,1.46,8.16-0.22c0.6-0.31,1.15-0.71,1.6-1.21c0.16-0.18,0.31-0.36,0.45-0.56c0.24-0.37,0.6-0.59,0.97-0.59
				c0.48,0,0.78,0.22,1.04,0.66c1.2,2.06,2.9,3.1,4.97,3.1c3.68-0.01,5.7-1.71,6.86-3.43c0.6-0.89,0.89-1.87,0.98-2.18
				C268.08,124.17,267.97,123.42,267.94,123.28z M252.31,122.19c-1.54,3.38-4.1,3.96-5.77,3.94c-1.17-0.02-2.23-0.56-3.1-1.34
				c-2.07-2.22-2.44-4.57-2.44-4.57c-1.18-6.58,1.89-10.02,1.89-10.02c2.67-3.09,6.15-1.75,6.7-1.51c1.81,1,3.1,2.96,3.44,5.06
				C253.6,117.32,253.61,119.33,252.31,122.19z"/>
			<path class="st2" d="M142.6,127.86L142.6,127.86c-0.06-1.2-0.09-2.67-0.09-4.5v-9.03c0-1.4-0.14-2.76-0.43-4.04
				c-0.29-1.29-0.8-2.43-1.52-3.4c-0.72-0.97-1.69-1.75-2.86-2.3c-1.16-0.55-2.62-0.83-4.31-0.83c-0.05,0-0.09,0-0.14,0
				c-0.1,0-0.21,0.01-0.32,0.02c-0.33,0.02-0.65,0.05-0.91,0.08c-3.99,0.47-6.2,2.57-7.07,3.64c-0.16-0.85-0.53-1.84-1.33-2.64
				c-1.06-0.86-2.31-0.72-3.18-0.45c-1.01,0.34-1.45,0.93-1.57,1.11c-0.29,0.5,0.01,1.02,0.11,1.15c0.86,1.1,0.81,3.6,0.81,3.6v9.99
				c0,3.96-0.03,7.06-0.1,9.22l0,0.08c-0.01,0.47,0.03,1.3,0.48,1.63c0.3,0.21,0.7,0.34,1.2,0.31l0.02,0.01l0.38-0.01
				c0.65,0,1.32-0.04,2.02-0.12c0.55-0.09,0.92-0.25,1.13-0.48c0.21-0.24,0.31-0.68,0.31-1.36v-16.23c0.18-0.42,1.53-3.31,4.31-4.46
				c0.03-0.01,3.16-1.41,5.54,0.41c0.27,0.19,0.47,0.36,0.64,0.54c0.2,0.22,0.39,0.47,0.56,0.78l0.03,0.07
				c0.51,0.97,0.76,2.34,0.76,4.06l-0.06,15.73c0,0.72,0.41,1.14,1.13,1.14c0.33,0,0.65-0.02,0.99-0.04
				c2.15-0.18,2.85-0.54,3.09-0.76c0.34-0.36,0.49-0.85,0.46-1.47C142.65,128.85,142.62,128.38,142.6,127.86z"/>
		</g>
	</g>
</g>
</svg>
