
<?xml version="1.0" encoding="UTF-8"?>
<!DOCTYPE svg PUBLIC "-//W3C//DTD SVG 1.1//EN" "http://www.w3.org/Graphics/SVG/1.1/DTD/svg11.dtd">
<!-- Creator: CorelDRAW X8 -->
<svg xmlns="http://www.w3.org/2000/svg" xml:space="preserve" width="29.0406mm" height="7.7892mm" version="1.1" style="shape-rendering:geometricPrecision; text-rendering:geometricPrecision; image-rendering:optimizeQuality; fill-rule:evenodd; clip-rule:evenodd"
viewBox="0 0 2904 779"
 xmlns:xlink="http://www.w3.org/1999/xlink">
 <defs>
  <style type="text/css">
   <![CDATA[
    .fil0 {fill:white}
   ]]>
  </style>
 </defs>
 <g id="Camada_x0020_1">
  <metadata id="CorelCorpID_0Corel-Layer"/>
  <g id="_2273051355680">
   <path class="fil0" d="M1847 217l-3 0 0 3 -3 0 0 6 -3 0 0 3 -3 0 0 3 -3 0 0 3 -6 0 0 6 3 0 0 -3 9 0 0 -3 27 0 0 3 6 0 0 3 6 0 0 3 3 0 0 3 6 0 0 3 3 0 0 3 3 0 0 6 -6 0 0 3 -3 0 0 3 -3 0 0 3 -6 0 0 3 -6 0 0 3 -30 0 0 -3 -9 0 0 -3 -6 0 0 3 3 0 0 3 3 0 0 3 6 0 0 6 3 0 0 3 3 0 0 6 3 0 0 6 3 0 0 9 3 0 0 24 -3 0 0 3 -6 0 0 3 -9 0 0 -3 -6 0 0 -3 -6 0 0 -3 -3 0 0 -3 -3 0 0 -3 -3 0 0 -6 -3 0 0 -3 -3 0 0 -3 -3 0 0 -6 -3 0 0 -9 -3 0 0 -12 -3 0 0 -3 -3 0 0 9 -3 0 0 9 -3 0 0 6 -3 0 0 6 -3 0 0 6 -3 0 0 3 -3 0 0 3 -3 0 0 3 -3 0 0 3 -3 0 0 3 -3 0 0 3 -9 0 0 3 -9 0 0 -3 -6 0 0 -6 -3 0 0 -18 3 0 0 -9 3 0 0 -6 3 0 0 -6 3 0 0 -6 3 0 0 -3 3 0 0 -3 3 0 0 -3 3 0 0 -3 3 0 0 -3 -6 0 0 3 -6 0 0 3 -27 0 0 -3 -9 0 0 -3 -6 0 0 -3 -3 0 0 -3 -6 0 0 -6 3 0 0 -3 3 0 0 -3 3 0 0 -3 3 0 0 -3 3 0 0 -3 6 0 0 -3 6 0 0 -3 24 0 0 3 6 0 0 3 6 0 0 -3 -3 0 0 -3 -3 0 0 -3 -6 0 0 -3 -3 0 0 -6 -3 0 0 -3 -3 0 0 -9 -3 0 0 -21 3 0 0 -21 3 0 0 3 3 0 0 3 6 0 0 3 12 0 0 3 6 0 0 3 6 0 0 3 3 0 0 3 3 0 0 6 3 0 0 9 3 0 0 9 3 0 0 9 6 0 0 -15 3 0 0 -9 3 0 0 -6 3 0 0 -3 3 0 0 -3 3 0 0 -3 3 0 0 -3 6 0 0 -3 12 0 0 -3 6 0 0 -3 3 0 0 -3 3 0 0 15 3 0 0 15 3 0 0 6 -3 0 0 12zm-72 -96l-15 0 0 3 -9 0 0 3 -9 0 0 3 -6 0 0 3 -6 0 0 3 -6 0 0 3 -3 0 0 3 -6 0 0 3 -3 0 0 3 -3 0 0 3 -3 0 0 3 -3 0 0 3 -3 0 0 3 -3 0 0 3 -3 0 0 3 -3 0 0 3 -3 0 0 3 -3 0 0 6 -3 0 0 3 -3 0 0 6 -3 0 0 6 -3 0 0 6 -3 0 0 6 -3 0 0 9 -3 0 0 12 -3 0 0 51 3 0 0 12 3 0 0 9 3 0 0 6 3 0 0 9 3 0 0 6 3 0 0 3 3 0 0 6 3 0 0 3 3 0 0 3 3 0 0 6 3 0 0 3 3 0 0 3 3 0 0 3 3 0 0 3 3 0 0 3 3 0 0 3 6 0 0 3 3 0 0 3 6 0 0 3 3 0 0 3 6 0 0 3 6 0 0 3 6 0 0 3 9 0 0 3 12 0 0 3 57 0 0 -3 12 0 0 -3 9 0 0 -3 6 0 0 -3 6 0 0 -3 6 0 0 -3 3 0 0 -3 6 0 0 -3 3 0 0 -3 6 0 0 -3 3 0 0 -3 3 0 0 -3 3 0 0 -3 3 0 0 -3 3 0 0 -3 3 0 0 -3 3 0 0 -6 3 0 0 -3 3 0 0 -6 3 0 0 -6 3 0 0 -3 3 0 0 -6 3 0 0 -9 3 0 0 -9 3 0 0 -12 3 0 0 -48 -3 0 0 -15 -3 0 0 -9 -3 0 0 -6 -3 0 0 -6 -3 0 0 -6 -3 0 0 -6 -3 0 0 -3 -3 0 0 -6 -3 0 0 -3 -3 0 0 -3 -3 0 0 -3 -3 0 0 -3 -3 0 0 -3 -3 0 0 -3 -3 0 0 -3 -3 0 0 -3 -3 0 0 -3 -3 0 0 -3 -6 0 0 -3 -3 0 0 -3 -6 0 0 -3 -6 0 0 -3 -6 0 0 -3 -9 0 0 -3 -9 0 0 -3 -15 0 0 -3 -39 0 0 3z"/>
   <path class="fil0" d="M621 505l-3 0 0 -9 3 0 0 -12 3 0 0 -15 3 0 0 -9 3 0 0 -12 3 0 0 -9 3 0 0 -12 3 0 0 -12 3 0 0 -9 3 0 0 12 3 0 0 12 3 0 0 12 3 0 0 12 3 0 0 12 3 0 0 9 3 0 0 12 3 0 0 12 3 0 0 3 -48 0 0 3zm-3 -159l-3 0 0 3 -3 0 0 6 -3 0 0 9 -3 0 0 12 -3 0 0 9 -3 0 0 12 -3 0 0 9 -3 0 0 12 -3 0 0 9 -3 0 0 12 -3 0 0 9 -3 0 0 12 -3 0 0 9 -3 0 0 12 -3 0 0 9 -3 0 0 12 -3 0 0 9 -3 0 0 12 -3 0 0 12 -3 0 0 9 -3 0 0 9 -3 0 0 9 -3 0 0 6 -3 0 0 6 -3 0 0 12 3 0 0 6 6 0 0 3 6 0 0 3 18 0 0 -3 6 0 0 -3 6 0 0 -3 3 0 0 -3 3 0 0 -6 3 0 0 -6 3 0 0 -12 3 0 0 -9 3 0 0 -9 72 0 0 3 3 0 0 9 3 0 0 12 3 0 0 9 3 0 0 6 3 0 0 3 3 0 0 3 3 0 0 3 3 0 0 3 9 0 0 3 18 0 0 -3 6 0 0 -3 3 0 0 -3 3 0 0 -3 3 0 0 -12 -3 0 0 -6 -3 0 0 -3 -3 0 0 -9 -3 0 0 -9 -3 0 0 -9 -3 0 0 -12 -3 0 0 -12 -3 0 0 -9 -3 0 0 -12 -3 0 0 -12 -3 0 0 -9 -3 0 0 -12 -3 0 0 -9 -3 0 0 -12 -3 0 0 -9 -3 0 0 -12 -3 0 0 -9 -3 0 0 -12 -3 0 0 -12 -3 0 0 -9 -3 0 0 -9 -3 0 0 -3 -3 0 0 -6 -3 0 0 -3 -6 0 0 -3 -3 0 0 -3 -9 0 0 -3 -12 0 0 -3 -24 0 0 3z"/>
   <polygon class="fil0" points="765,355 759,355 759,358 753,358 753,544 756,544 756,553 759,553 759,562 762,562 762,568 765,568 765,571 768,571 768,574 771,574 771,577 774,577 774,580 777,580 777,583 783,583 783,586 789,586 789,589 795,589 795,592 805,592 805,595 823,595 823,598 847,598 847,595 865,595 865,592 874,592 874,589 880,589 880,586 886,586 886,583 889,583 889,580 895,580 895,577 898,577 898,574 901,574 901,571 904,571 904,565 907,565 907,559 910,559 910,553 913,553 913,538 916,538 916,370 913,370 913,364 910,364 910,361 907,361 907,358 901,358 901,355 892,355 892,352 877,352 877,355 871,355 871,358 865,358 865,529 862,529 862,538 859,538 859,541 856,541 856,544 853,544 853,547 844,547 844,550 826,550 826,547 817,547 817,544 814,544 814,541 811,541 811,538 808,538 808,532 805,532 805,373 802,373 802,364 798,364 798,361 795,361 795,358 789,358 789,355 780,355 780,352 765,352 "/>
   <polygon class="fil0" points="384,355 378,355 378,358 372,358 372,541 375,541 375,556 378,556 378,562 381,562 381,568 384,568 384,571 387,571 387,574 390,574 390,577 393,577 393,580 396,580 396,583 402,583 402,586 408,586 408,589 414,589 414,592 423,592 423,595 441,595 441,598 465,598 465,595 483,595 483,592 492,592 492,589 498,589 498,586 504,586 504,583 507,583 507,580 513,580 513,577 516,577 516,574 519,574 519,571 522,571 522,565 525,565 525,562 528,562 528,553 531,553 531,538 534,538 534,370 531,370 531,364 528,364 528,361 525,361 525,358 519,358 519,355 510,355 510,352 498,352 498,355 489,355 489,358 483,358 483,532 480,532 480,538 477,538 477,541 474,541 474,544 471,544 471,547 462,547 462,550 444,550 444,547 435,547 435,544 432,544 432,541 429,541 429,538 426,538 426,535 423,535 423,370 420,370 420,364 417,364 417,361 414,361 414,358 408,358 408,355 399,355 399,352 384,352 "/>
   <path class="fil0" d="M1426 493l4 0 0 -12 3 0 0 -6 3 0 0 -3 3 0 0 -6 6 0 0 -3 3 0 0 -3 6 0 0 -3 18 0 0 3 9 0 0 3 3 0 0 3 3 0 0 3 3 0 0 6 3 0 0 3 3 0 0 6 3 0 0 12 3 0 0 36 -3 0 0 12 -3 0 0 6 -3 0 0 3 -3 0 0 6 -3 0 0 3 -3 0 0 3 -3 0 0 3 -21 0 0 -3 -6 0 0 -3 -6 0 0 -3 -3 0 0 -3 -3 0 0 -3 -3 0 0 -6 -3 0 0 -6 -3 0 0 -9 -3 0 0 -12 -4 0 0 -27zm16 -54l-16 0 0 3 -9 0 0 3 -6 0 0 3 -3 0 0 3 -6 0 0 3 -3 0 0 3 -3 0 0 3 -3 0 0 3 -3 0 0 3 -3 0 0 6 -3 0 0 6 -3 0 0 6 -3 0 0 15 -3 0 0 27 3 0 0 18 3 0 0 9 3 0 0 6 3 0 0 6 3 0 0 6 3 0 0 3 3 0 0 3 3 0 0 3 3 0 0 3 3 0 0 3 6 0 0 3 3 0 0 3 9 0 0 3 19 0 0 3 12 0 0 -3 15 0 0 -3 6 0 0 -3 3 0 0 -3 3 0 0 -3 3 0 0 -3 3 0 0 -3 3 0 0 -3 3 0 0 -3 6 0 0 39 -3 0 0 12 -3 0 0 6 -3 0 0 3 -3 0 0 3 -3 0 0 3 -3 0 0 3 -6 0 0 3 -12 0 0 3 -12 0 0 -3 -18 0 0 -3 -7 0 0 -3 -6 0 0 -3 -12 0 0 3 -3 0 0 12 3 0 0 3 3 0 0 3 6 0 0 3 9 0 0 3 70 0 0 -3 9 0 0 -3 6 0 0 -3 6 0 0 -3 6 0 0 -3 3 0 0 -3 3 0 0 -3 3 0 0 -3 3 0 0 -3 3 0 0 -6 3 0 0 -3 3 0 0 -6 3 0 0 -9 3 0 0 -9 3 0 0 -15 3 0 0 -147 -33 0 0 3 -6 0 0 3 -3 0 0 3 -3 0 0 3 -3 0 0 3 -6 0 0 3 -6 0 0 -3 -3 0 0 -3 -3 0 0 -3 -3 0 0 -3 -3 0 0 -3 -9 0 0 -3 -15 0 0 -3 -18 0 0 3z"/>
   <polygon class="fil0" points="1255,439 1243,439 1243,442 1234,442 1234,445 1228,445 1228,448 1225,448 1225,451 1222,451 1222,454 1219,454 1219,457 1216,457 1216,460 1213,460 1213,463 1210,463 1210,466 1207,466 1207,472 1204,472 1204,466 1201,466 1201,445 1198,445 1198,439 1111,439 1111,442 1102,442 1102,448 1108,448 1108,451 1114,451 1114,454 1120,454 1120,457 1129,457 1129,460 1135,460 1135,463 1138,463 1138,466 1141,466 1141,469 1144,469 1144,478 1147,478 1147,598 1201,598 1201,595 1204,595 1204,508 1207,508 1207,499 1210,499 1210,493 1213,493 1213,487 1216,487 1216,484 1219,484 1219,481 1225,481 1225,478 1234,478 1234,475 1243,475 1243,478 1252,478 1252,481 1258,481 1258,487 1261,487 1261,571 1264,571 1264,580 1267,580 1267,583 1270,583 1270,586 1273,586 1273,589 1276,589 1276,592 1282,592 1282,595 1291,595 1291,598 1312,598 1312,595 1324,595 1324,592 1330,592 1330,589 1333,589 1333,586 1336,586 1336,583 1339,583 1339,580 1342,580 1342,577 1345,577 1345,571 1348,571 1348,565 1351,565 1351,556 1354,556 1354,547 1357,547 1357,544 1351,544 1351,550 1348,550 1348,556 1345,556 1345,559 1342,559 1342,562 1339,562 1339,565 1336,565 1336,568 1324,568 1324,565 1318,565 1318,562 1315,562 1315,550 1312,550 1312,529 1315,529 1315,466 1312,466 1312,460 1309,460 1309,454 1306,454 1306,451 1303,451 1303,448 1300,448 1300,445 1297,445 1297,442 1291,442 1291,439 1279,439 1279,436 1255,436 "/>
   <path class="fil0" d="M2085 487l3 0 0 -9 3 0 0 -6 3 0 0 -3 3 0 0 -3 3 0 0 -3 3 0 0 -3 6 0 0 -3 24 0 0 3 6 0 0 3 3 0 0 3 3 0 0 3 3 0 0 6 3 0 0 3 3 0 0 9 3 0 0 15 3 0 0 24 -3 0 0 15 -3 0 0 6 -3 0 0 6 -3 0 0 3 -3 0 0 3 -3 0 0 3 -3 0 0 3 -3 0 0 3 -18 0 0 -3 -6 0 0 -3 -6 0 0 -3 -3 0 0 -3 -3 0 0 -3 -3 0 0 -6 -3 0 0 -6 -3 0 0 -6 -3 0 0 -12 -3 0 0 -36zm12 -48l-12 0 0 3 -6 0 0 3 -6 0 0 3 -6 0 0 3 -3 0 0 3 -3 0 0 3 -3 0 0 3 -3 0 0 3 -4 0 0 3 -3 0 0 6 -3 0 0 3 -3 0 0 6 -3 0 0 9 -3 0 0 51 3 0 0 9 3 0 0 6 3 0 0 6 3 0 0 6 3 0 0 3 4 0 0 3 3 0 0 3 3 0 0 3 3 0 0 3 3 0 0 3 3 0 0 3 6 0 0 3 6 0 0 3 15 0 0 3 21 0 0 -3 12 0 0 -3 9 0 0 -3 3 0 0 -3 6 0 0 -3 3 0 0 -3 3 0 0 -3 3 0 0 -3 9 0 0 3 3 0 0 3 3 0 0 3 3 0 0 3 3 0 0 3 3 0 0 3 6 0 0 3 9 0 0 3 18 0 0 -3 12 0 0 -3 6 0 0 -3 6 0 0 -3 3 0 0 -3 3 0 0 -6 3 0 0 -3 3 0 0 -6 3 0 0 -6 3 0 0 -9 3 0 0 -9 -3 0 0 3 -3 0 0 6 -3 0 0 3 -3 0 0 3 -3 0 0 3 -3 0 0 3 -6 0 0 3 -9 0 0 -3 -6 0 0 -6 -3 0 0 -120 -3 0 0 -3 -36 0 0 3 -3 0 0 3 -3 0 0 3 -3 0 0 3 -3 0 0 3 -3 0 0 3 -3 0 0 3 -3 0 0 -3 -3 0 0 -3 -3 0 0 -3 -3 0 0 -3 -6 0 0 -3 -6 0 0 -3 -9 0 0 -3 -30 0 0 3z"/>
   <polygon class="fil0" points="973,361 976,361 976,364 985,364 985,367 991,367 991,370 1000,370 1000,373 1006,373 1006,376 1009,376 1009,379 1012,379 1012,382 1015,382 1015,553 1018,553 1018,574 1021,574 1021,580 1024,580 1024,583 1027,583 1027,586 1030,586 1030,589 1033,589 1033,592 1036,592 1036,595 1048,595 1048,598 1069,598 1069,595 1081,595 1081,592 1087,592 1087,589 1090,589 1090,586 1093,586 1093,583 1096,583 1096,580 1099,580 1099,577 1102,577 1102,574 1105,574 1105,568 1108,568 1108,562 1111,562 1111,553 1114,553 1114,544 1111,544 1111,550 1108,550 1108,556 1105,556 1105,559 1102,559 1102,562 1099,562 1099,565 1093,565 1093,568 1081,568 1081,565 1078,565 1078,562 1075,562 1075,553 1072,553 1072,352 973,352 "/>
   <polygon class="fil0" points="1862,493 1883,493 1883,481 1886,481 1886,472 1889,472 1889,466 1892,466 1892,463 1895,463 1895,460 1907,460 1907,457 1919,457 1919,460 1943,460 1943,466 1940,466 1940,472 1937,472 1937,475 1934,475 1934,478 1931,478 1931,481 1928,481 1928,484 1925,484 1925,490 1922,490 1922,493 1919,493 1919,496 1916,496 1916,499 1913,499 1913,505 1910,505 1910,508 1907,508 1907,511 1904,511 1904,514 1901,514 1901,520 1898,520 1898,523 1895,523 1895,526 1892,526 1892,529 1889,529 1889,535 1886,535 1886,538 1883,538 1883,541 1880,541 1880,544 1877,544 1877,550 1874,550 1874,553 1871,553 1871,556 1868,556 1868,559 1865,559 1865,565 1862,565 1862,595 1898,595 1898,592 1901,592 1901,589 1904,589 1904,586 1907,586 1907,583 1910,583 1910,580 1913,580 1913,577 1934,577 1934,580 1940,580 1940,583 1946,583 1946,586 1952,586 1952,589 1958,589 1958,592 1964,592 1964,595 1976,595 1976,598 1988,598 1988,595 2000,595 2000,592 2006,592 2006,589 2009,589 2009,586 2012,586 2012,583 2015,583 2015,577 2018,577 2018,562 2021,562 2021,544 2018,544 2018,553 2015,553 2015,562 2012,562 2012,565 2009,565 2009,568 1988,568 1988,565 1979,565 1979,562 1973,562 1973,559 1964,559 1964,556 1958,556 1958,553 1952,553 1952,550 1937,550 1937,547 1940,547 1940,544 1943,544 1943,541 1946,541 1946,538 1949,538 1949,535 1952,535 1952,532 1955,532 1955,529 1958,529 1958,526 1961,526 1961,520 1964,520 1964,517 1967,517 1967,514 1970,514 1970,511 1973,511 1973,508 1976,508 1976,505 1979,505 1979,502 1982,502 1982,499 1985,499 1985,493 1988,493 1988,490 1991,490 1991,487 1994,487 1994,484 1997,484 1997,481 2000,481 2000,478 2003,478 2003,475 2006,475 2006,472 2009,472 2009,439 1862,439 "/>
   <polygon class="fil0" points="1589,352 1580,352 1580,355 1574,355 1574,358 1571,358 1571,361 1568,361 1568,364 1565,364 1565,367 1562,367 1562,370 1559,370 1559,376 1556,376 1556,382 1553,382 1553,388 1550,388 1550,400 1553,400 1553,394 1556,394 1556,391 1559,391 1559,385 1562,385 1562,382 1565,382 1565,379 1583,379 1583,382 1586,382 1586,385 1589,385 1589,394 1592,394 1592,598 1688,598 1688,595 1691,595 1691,589 1685,589 1685,586 1679,586 1679,583 1673,583 1673,580 1664,580 1664,577 1658,577 1658,574 1655,574 1655,571 1652,571 1652,568 1649,568 1649,559 1646,559 1646,376 1643,376 1643,367 1640,367 1640,361 1637,361 1637,358 1634,358 1634,355 1628,355 1628,352 1622,352 1622,349 1589,349 "/>
   <path class="fil0" d="M1733 484l3 0 0 -12 3 0 0 -6 3 0 0 -3 3 0 0 -3 3 0 0 -3 6 0 0 -3 21 0 0 3 6 0 0 3 6 0 0 3 3 0 0 6 3 0 0 9 3 0 0 18 -63 0 0 -12zm12 -45l-12 0 0 3 -9 0 0 3 -6 0 0 3 -3 0 0 3 -6 0 0 3 -3 0 0 3 -3 0 0 3 -3 0 0 3 -3 0 0 3 -3 0 0 3 -3 0 0 3 -3 0 0 6 -3 0 0 6 -3 0 0 12 -3 0 0 42 3 0 0 9 3 0 0 6 3 0 0 6 3 0 0 6 3 0 0 3 3 0 0 3 3 0 0 3 3 0 0 3 6 0 0 3 3 0 0 3 3 0 0 3 6 0 0 3 6 0 0 3 9 0 0 3 15 0 0 3 21 0 0 -3 18 0 0 -3 6 0 0 -3 6 0 0 -3 6 0 0 -3 6 0 0 -3 3 0 0 -3 3 0 0 -3 3 0 0 -3 3 0 0 -3 3 0 0 -3 3 0 0 -6 3 0 0 -3 3 0 0 -6 3 0 0 -6 -6 0 0 6 -3 0 0 3 -3 0 0 3 -3 0 0 3 -3 0 0 3 -3 0 0 3 -3 0 0 3 -6 0 0 3 -6 0 0 3 -15 0 0 3 -15 0 0 -3 -12 0 0 -3 -6 0 0 -3 -3 0 0 -3 -3 0 0 -3 -3 0 0 -3 -3 0 0 -3 -3 0 0 -6 -3 0 0 -6 -3 0 0 -15 -3 0 0 -6 3 0 0 -3 105 0 0 -27 -3 0 0 -12 -3 0 0 -6 -3 0 0 -6 -3 0 0 -3 -3 0 0 -6 -3 0 0 -3 -3 0 0 -3 -6 0 0 -3 -3 0 0 -3 -3 0 0 -3 -6 0 0 -3 -9 0 0 -3 -12 0 0 -3 -36 0 0 3z"/>
   <path class="fil0" d="M2469 568l-3 0 0 6 -3 0 0 3 -3 0 0 3 -3 0 0 3 -9 0 0 3 -9 0 0 -3 -9 0 0 -3 -6 0 0 -3 -3 0 0 -6 -3 0 0 -3 -3 0 0 -12 -3 0 0 -18 3 0 0 -12 3 0 0 -6 3 0 0 -3 3 0 0 -3 6 0 0 -3 24 0 0 3 3 0 0 3 3 0 0 3 3 0 0 3 3 0 0 6 3 0 0 12 3 0 0 12 -3 0 0 15zm-45 -69l-6 0 0 3 -3 0 0 3 -6 0 0 3 -3 0 0 3 -3 0 0 3 -3 0 0 6 -3 0 0 3 -3 0 0 9 -3 0 0 30 3 0 0 9 3 0 0 6 3 0 0 3 3 0 0 6 3 0 0 3 6 0 0 3 3 0 0 3 6 0 0 3 15 0 0 3 12 0 0 -3 12 0 0 -3 9 0 0 -3 3 0 0 -3 3 0 0 -3 3 0 0 -3 3 0 0 -3 3 0 0 -6 3 0 0 -6 3 0 0 -9 3 0 0 -24 -3 0 0 -9 -3 0 0 -9 -3 0 0 -3 -3 0 0 -3 -3 0 0 -3 -3 0 0 -3 -3 0 0 -3 -6 0 0 -3 -6 0 0 -3 -36 0 0 3z"/>
   <polygon class="fil0" points="2334,499 2325,499 2325,502 2322,502 2322,505 2316,505 2316,508 2313,508 2313,511 2310,511 2310,514 2307,514 2307,520 2304,520 2304,526 2301,526 2301,535 2298,535 2298,565 2301,565 2301,571 2304,571 2304,577 2307,577 2307,580 2310,580 2310,586 2313,586 2313,589 2319,589 2319,592 2322,592 2322,595 2331,595 2331,598 2346,598 2346,601 2358,601 2358,598 2370,598 2370,595 2373,595 2373,592 2376,592 2376,589 2379,589 2379,580 2373,580 2373,583 2343,583 2343,580 2337,580 2337,577 2331,577 2331,574 2328,574 2328,571 2325,571 2325,565 2322,565 2322,556 2319,556 2319,538 2322,538 2322,529 2325,529 2325,523 2328,523 2328,520 2331,520 2331,517 2334,517 2334,514 2340,514 2340,511 2361,511 2361,514 2370,514 2370,517 2379,517 2379,511 2382,511 2382,505 2379,505 2379,502 2376,502 2376,499 2370,499 2370,496 2334,496 "/>
   <polygon class="fil0" points="1823,211 1817,211 1817,214 1814,214 1814,217 1811,217 1811,223 1808,223 1808,226 1805,226 1805,232 1802,232 1802,241 1799,241 1799,247 1796,247 1796,250 1793,250 1793,244 1790,244 1790,238 1787,238 1787,235 1784,235 1784,232 1781,232 1781,229 1778,229 1778,226 1775,226 1775,223 1772,223 1772,220 1769,220 1769,217 1766,217 1766,211 1763,211 1763,205 1760,205 1760,217 1763,217 1763,223 1766,223 1766,226 1769,226 1769,229 1772,229 1772,232 1775,232 1775,235 1778,235 1778,238 1781,238 1781,244 1784,244 1784,247 1787,247 1787,253 1784,253 1784,250 1760,250 1760,247 1745,247 1745,250 1736,250 1736,253 1730,253 1730,256 1727,256 1727,259 1733,259 1733,256 1742,256 1742,253 1760,253 1760,256 1775,256 1775,259 1787,259 1787,262 1781,262 1781,265 1778,265 1778,271 1775,271 1775,274 1772,274 1772,277 1769,277 1769,283 1766,283 1766,289 1763,289 1763,301 1769,301 1769,289 1772,289 1772,283 1775,283 1775,280 1778,280 1778,274 1784,274 1784,271 1787,271 1787,268 1790,268 1790,265 1793,265 1793,274 1796,274 1796,280 1799,280 1799,283 1802,283 1802,286 1805,286 1805,289 1808,289 1808,292 1811,292 1811,295 1814,295 1814,298 1817,298 1817,301 1823,301 1823,304 1829,304 1829,301 1826,301 1826,298 1823,298 1823,295 1820,295 1820,292 1814,292 1814,289 1811,289 1811,286 1808,286 1808,280 1805,280 1805,277 1802,277 1802,268 1799,268 1799,262 1817,262 1817,259 1832,259 1832,256 1853,256 1853,259 1859,259 1859,253 1847,253 1847,250 1826,250 1826,253 1805,253 1805,256 1802,256 1802,250 1805,250 1805,247 1808,247 1808,238 1811,238 1811,229 1814,229 1814,223 1817,223 1817,220 1820,220 1820,214 1823,214 "/>
   <polygon class="fil0" points="2517,574 2511,574 2511,577 2508,577 2508,580 2505,580 2505,592 2508,592 2508,598 2517,598 2517,601 2520,601 2520,598 2526,598 2526,595 2529,595 2529,592 2532,592 2532,580 2529,580 2529,577 2526,577 2526,574 2520,574 2520,571 2517,571 "/>
   <polygon class="fil0" points="1823,211 1826,211 1826,208 1823,208 "/>
  </g>
 </g>
</svg>
